<svg width="30px" height="30px" viewBox="0 0 30 30" version="1.1" xmlns="http://www.w3.org/2000/svg" xmlns:xlink="http://www.w3.org/1999/xlink">
    <g id="Page-1" stroke="none" stroke-width="1" fill="none" fill-rule="evenodd">
        <g id="SSB.WORLD" transform="translate(-1194.000000, -25.000000)" fill="#E1EEF6">
            <g id="menu" transform="translate(0.000000, 2.000000)">
                <path d="M1209,23 C1200.7,23 1194,29.7 1194,38 C1194,44.6 1198.3,50.2 1204.3,52.2 C1205.1,52.3 1205.3,51.9 1205.3,51.5 L1205.3,48.9 C1201.1,49.8 1200.2,46.9 1200.2,46.9 C1199.5,45.2 1198.5,44.7 1198.5,44.7 C1197.1,43.8 1198.6,43.8 1198.6,43.8 C1200.1,43.9 1200.9,45.3 1200.9,45.3 C1202.2,47.6 1204.4,46.9 1205.3,46.5 C1205.4,45.5 1205.8,44.9 1206.3,44.5 C1203,44.1 1199.5,42.8 1199.5,37.1 C1199.5,35.5 1200.1,34.1 1201,33.1 C1200.8,32.7 1200.3,31.2 1201.1,29.1 C1201.1,29.1 1202.4,28.7 1205.2,30.6 C1206.4,30.3 1207.7,30.1 1209,30.1 C1210.3,30.1 1211.6,30.3 1212.8,30.6 C1215.7,28.7 1216.9,29.1 1216.9,29.1 C1217.7,31.2 1217.2,32.7 1217,33.1 C1218,34.1 1218.5,35.5 1218.5,37.1 C1218.5,42.9 1215,44.1 1211.7,44.5 C1212.2,45 1212.7,45.9 1212.7,47.3 L1212.7,51.4 C1212.7,51.8 1213,52.3 1213.7,52.1 C1219.7,50.1 1223.9,44.5 1223.9,37.9 C1224,29.7 1217.3,23 1209,23 Z" id="Shape"></path>
            </g>
        </g>
    </g>
</svg>